<svg fill="#609ACB" width="25" height="25" version="1.1" viewBox="0 0 100 100" xmlns="http://www.w3.org/2000/svg">
 <g>
  <path d="m96.25 23.438c3.125-3.125 3.125-8.125 0-11.25l-8.125-8.125c-3.125-3.125-8.4375-3.125-11.25 0l-4.0625 4.0625 19.688 19.688z"/>
  <path d="m83.941 35.504l-19.445-19.445 4.6406-4.6406 19.445 19.445z"/>
  <path d="m1.5625 95.312c-0.3125 0.9375 0 1.875 0.625 2.5 0.3125 0.3125 0.9375 0.625 1.5625 0.625h0.9375l23.438-8.4375-18.125-18.125z"/>
  <path d="m12.566 67.832l48.391-48.391 8.1758 8.1758-48.391 48.391z"/>
  <path d="m72.566 30.66l8.1758 8.1758-48.391 48.391-8.1758-8.1758z"/>
 </g>
</svg>
