<svg fill="#D71E00" width="13" height="13" version="1.1" viewBox="0 0 100 100" xmlns="http://www.w3.org/2000/svg">
 <path d="m50.004 61.176l20.715 21.207c2.0781 2.1445 3.4297 2.1641 5.5469 0l4.1562-4.2578c2.0352-2.0859 2.1758-3.4492 0-5.6797l-21.934-22.445 21.93-22.449c2.0547-2.1094 2.0938-3.5312 0-5.6797l-4.1562-4.2539c-2.1562-2.207-3.4883-2.1055-5.5469 0l-20.711 21.207-20.715-21.207c-2.0586-2.1055-3.3906-2.207-5.5469 0l-4.1523 4.2539c-2.0977 2.1445-2.0586 3.5703 0 5.6797l21.926 22.449-21.926 22.449c-2.1758 2.2266-2.0586 3.5938 0 5.6797l4.1523 4.2578c2.0977 2.1641 3.4492 2.1445 5.5469 0z" fill-rule="evenodd"/>
</svg>
